# xmcd
#
# Track frame offsets:
#	150
#	12151
#	23456
#	36573
#	48113
#	61466
#	74719
#	85874
#	98950
#	110479
#	122966
#	134919
#	147485
#	161245
#	173502
#	184594
#	195820
#	209086
#	222578
#	233290
#	245186
#	257528
#	268068
#	281365
#	293556
#
# Disc length: 4054 seconds
#
# Revision: 0
# Processed by: cddbd v1.5.2PL0 Copyright (c) Steve Scherf et al.
# Submitted via: EasyCDDAExtractor 10.0.3.1
#
DISCID=7c0fd419
DTITLE=mix - Uptown Boogie The Great Unheard Preformances
DYEAR=1999
DGENRE=Blues
TTITLE0=Al Wichard - Boogie Woogie Upstairs
TTITLE1=Hadda Brooks - Nightmare Boogie 
TTITLE2=Poison Gardner - Tornado 
TTITLE3=Bob Moseley - Riff Raff Boogie 
TTITLE4=Dick Lewis - Beale Street Boogie 
TTITLE5=Hadda Brooks - Bluesin´ The Boogie 
TTITLE6=Lucky Henry - Barcarolle Boogie
TTITLE7=Lonnie Lyons - Down In The Groovy
TTITLE8=Bob Moseley - Bobbie´s Boogie
TTITLE9=Poison Gardner - Noisen With Poison
TTITLE10=Cecil Gant - Hogan´s Alley
TTITLE11=Betty Hall Jones - Same Old Boogie
TTITLE12=Poison Gardner - Empire Boogie
TTITLE13=Slim Gaillard - Central Avenue Boogie
TTITLE14=Robert T Smith - Freeway Boogie
TTITLE15=Al Wichard - Boogie Woogie Basement
TTITLE16=Hadda Brooks - Rocking The Boogie 
TTITLE17=Dick Lewis - Basin Street Boogie
TTITLE18=Bob Moseley - Door Blow Boogie
TTITLE19=Poison Gardner - Rhapsody Boogie
TTITLE20=Hadda Brooks - Ridin´ The Boogie
TTITLE21=Jack Surrell - Detroit Boogie 
TTITLE22=Al Killian - Boogie In My Flat
TTITLE23=Harry Dial - Prince´s Boogie Woogie
TTITLE24=Doc Wiley - Wild Cat Boogie
EXTD=
EXTT0=
EXTT1=
EXTT2=
EXTT3=
EXTT4=
EXTT5=
EXTT6=
EXTT7=
EXTT8=
EXTT9=
EXTT10=
EXTT11=
EXTT12=
EXTT13=
EXTT14=
EXTT15=
EXTT16=
EXTT17=
EXTT18=
EXTT19=
EXTT20=
EXTT21=
EXTT22=
EXTT23=
EXTT24=
PLAYORDER=
